<svg version="1.1" id="Layer_1" xmlns="http://www.w3.org/2000/svg" xmlns:xlink="http://www.w3.org/1999/xlink" x="0px" y="0px"
	 width="100%" viewBox="0 0 500 500" enable-background="new 0 0 500 500" xml:space="preserve">
<path fill="#FF0000" opacity="1.000000" stroke="none" 
	d="
M450.000000,501.000000 
	C301.500031,501.000000 153.500061,500.983490 5.500176,501.093994 
	C1.751001,501.096802 0.903619,500.249725 0.906112,496.500061 
	C1.014955,332.833496 1.014940,169.166840 0.906175,5.500288 
	C0.903684,1.751445 1.749875,0.903597 5.499835,0.906092 
	C169.166382,1.014958 332.833038,1.014936 496.499603,0.906196 
	C500.248169,0.903706 501.096466,1.749474 501.093964,5.499716 
	C500.985077,169.166275 500.985077,332.832916 501.093781,496.499481 
	C501.096252,500.247742 500.259918,501.163177 496.498810,501.102692 
	C481.169281,500.856110 465.833496,501.000000 450.000000,501.000000 
z"/>
<path fill="#FFF6F6" opacity="1.000000" stroke="none" 
	d="
M281.138123,236.634521 
	C283.140228,244.215591 285.055908,251.396790 286.971588,258.577972 
	C287.249207,258.565918 287.526825,258.553894 287.804413,258.541840 
	C289.272736,251.664032 290.732025,244.784286 292.212036,237.908997 
	C293.611542,231.407852 293.621124,231.409912 300.974762,232.451843 
	C298.265259,244.428574 295.483032,256.370972 292.911346,268.358551 
	C292.311340,271.155365 290.587097,271.289612 288.533752,270.980011 
	C286.409454,270.659790 283.601196,272.445648 282.666962,268.424774 
	C280.992981,261.220154 278.787048,254.139099 275.898376,246.998062 
	C274.177887,253.722275 272.190063,260.393402 270.840759,267.191284 
	C270.073853,271.055054 267.842407,270.960602 264.868622,271.115479 
	C261.717285,271.279602 260.597748,270.138489 259.972076,267.160614 
	C257.785645,256.754150 255.241318,246.422913 253.051163,236.017181 
	C252.808517,234.864380 250.125290,232.154709 253.970886,232.089417 
	C256.305145,232.049805 259.682617,230.227875 260.505798,234.906754 
	C261.743164,241.939896 263.461914,248.888474 264.984741,255.871109 
	C265.117920,256.481842 265.315308,257.078583 265.660126,258.320038 
	C267.906494,255.550751 267.886749,252.537415 268.666016,249.895050 
	C269.980865,245.436768 270.952881,240.877869 272.091614,236.367004 
	C272.682465,234.026581 272.821808,231.791656 276.521698,231.798523 
	C280.103516,231.805176 280.613098,233.674774 281.138123,236.634521 
z"/>
<path fill="#FFF4F4" opacity="1.000000" stroke="none" 
	d="
M108.166702,248.003601 
	C108.166702,244.343430 107.955246,241.162872 108.242287,238.027969 
	C108.428452,235.994720 106.694061,232.620972 109.791588,232.190323 
	C112.996033,231.744812 116.814568,230.483444 119.297768,235.056961 
	C123.214859,242.271347 127.903374,249.066879 133.377380,255.811142 
	C133.377380,249.118851 133.545288,242.420517 133.304092,235.736938 
	C133.189423,232.559052 134.297913,231.911636 137.276321,231.843979 
	C140.477371,231.771255 141.118668,232.835510 141.065338,235.811371 
	C140.883530,245.957199 141.055862,256.109039 140.932678,266.256653 
	C140.913651,267.823456 142.166245,270.541443 139.684464,270.815674 
	C136.857605,271.127991 133.523163,272.370941 131.318939,268.568329 
	C126.740326,260.669464 121.800957,252.979706 116.650787,244.621216 
	C115.273308,248.608398 116.107750,252.153061 115.957588,255.593033 
	C115.798119,259.246399 115.848244,262.914062 115.946251,266.571777 
	C116.017303,269.223602 116.203842,271.196320 112.261574,271.185791 
	C108.386879,271.175446 107.999504,269.625122 108.107506,266.469482 
	C108.312271,260.486816 108.166718,254.492203 108.166702,248.003601 
z"/>
<path fill="#FFF2F2" opacity="1.000000" stroke="none" 
	d="
M187.870773,244.164185 
	C189.053497,249.704437 190.168228,254.849167 191.478546,260.896484 
	C194.275620,255.384476 194.975479,250.120575 196.537125,245.161438 
	C197.237732,242.936569 197.712967,241.353195 200.678726,241.328552 
	C203.752731,241.303024 204.586334,242.665726 205.244690,245.278854 
	C206.472443,250.151993 208.102081,254.923889 210.613785,259.675568 
	C211.690079,254.767914 213.139435,249.904480 213.728012,244.939011 
	C214.224426,240.750916 216.891739,241.092972 219.415955,241.568451 
	C222.469833,242.143692 220.553497,244.394348 220.226624,245.864243 
	C218.603363,253.163177 216.665649,260.397278 215.237213,267.731842 
	C214.689560,270.543854 213.509628,271.218018 210.930511,271.076874 
	C208.439621,270.940582 206.222916,271.438660 205.504288,267.782166 
	C204.461365,262.475464 202.638947,257.321930 200.284637,252.131287 
	C198.896988,257.139984 197.177292,262.087250 196.234955,267.178375 
	C195.573807,270.750366 193.738800,270.989288 190.747833,271.149841 
	C187.596863,271.319000 186.824127,269.865540 186.255951,267.321411 
	C184.662613,260.186676 182.822220,253.106369 181.288971,245.959595 
	C180.997375,244.600418 179.342529,242.280914 181.655960,241.707550 
	C183.676956,241.206665 186.824081,240.015900 187.870773,244.164185 
z"/>
<path fill="#FFF5F5" opacity="1.000000" stroke="none" 
	d="
M167.965439,258.001770 
	C165.320053,258.001831 163.150040,257.911285 160.992645,258.036896 
	C159.757294,258.108826 157.974350,257.258820 157.387390,258.621674 
	C156.697006,260.224670 157.826950,261.850189 158.908188,263.109131 
	C161.196762,265.773804 166.370590,266.160736 169.222519,263.207062 
	C171.898605,260.435486 173.433640,262.552124 175.007889,263.837219 
	C177.394028,265.785095 174.829605,267.052429 173.788315,268.124664 
	C169.470764,272.570496 160.246094,272.876984 154.799866,268.936218 
	C149.130447,264.833954 147.470627,254.303207 151.424026,247.518173 
	C154.955399,241.457428 163.686829,239.045395 170.360519,242.287003 
	C174.825485,244.455780 177.704056,250.838089 176.680695,255.921494 
	C176.340149,257.613159 175.494766,258.079132 173.940445,258.016357 
	C172.111786,257.942505 170.277786,258.000793 167.965439,258.001770 
z"/>
<path fill="#FFF5F5" opacity="1.000000" stroke="none" 
	d="
M372.352722,266.556183 
	C366.328156,255.664993 369.654602,244.282761 379.356750,241.514404 
	C389.242523,238.693649 396.926544,244.537430 396.734375,254.598129 
	C396.686371,257.109497 395.940735,258.143372 393.271912,258.053467 
	C387.981995,257.875305 382.681885,258.000793 377.352112,258.000793 
	C378.292419,264.934448 384.152405,267.816223 388.937103,263.419250 
	C391.843628,260.748199 393.480438,262.338013 395.089661,263.912750 
	C397.422821,266.195831 394.520020,267.431305 393.337494,268.527374 
	C388.047485,273.430756 378.776184,272.583740 372.352722,266.556183 
z"/>
<path fill="#FFF5F5" opacity="1.000000" stroke="none" 
	d="
M307.474182,244.515533 
	C309.785309,242.744049 312.087616,241.768082 314.545654,241.259079 
	C324.314362,239.236191 329.196899,243.183105 329.253052,253.079544 
	C329.269135,255.910889 329.229828,258.742828 329.273041,261.573639 
	C329.292664,262.858429 328.995911,264.627350 330.688293,264.881897 
	C333.854675,265.358063 333.200989,267.749786 332.924072,269.436401 
	C332.501068,272.012909 330.055664,270.965057 328.430267,271.120239 
	C325.541626,271.395966 323.848724,269.580231 322.531006,267.148132 
	C319.338287,271.685516 315.011292,272.658875 310.161163,270.871338 
	C306.257263,269.432556 304.802063,266.186859 304.980225,262.100281 
	C305.160156,257.973846 307.616241,255.778641 311.243134,254.670242 
	C313.619629,253.943970 316.103699,253.576385 318.501373,252.910492 
	C320.267700,252.419952 322.327087,251.823105 321.817566,249.377655 
	C321.347778,247.122879 319.348145,246.995605 317.434875,247.026184 
	C315.178070,247.062256 313.291992,248.068817 311.405212,249.172440 
	C310.433136,249.741043 309.494720,251.892456 308.251526,250.081436 
	C307.260895,248.638367 304.310944,247.126953 307.474182,244.515533 
z"/>
<path fill="#FFF4F4" opacity="1.000000" stroke="none" 
	d="
M244.717987,255.190186 
	C248.578186,257.903198 248.962494,261.479187 247.882217,265.210114 
	C246.861908,268.734009 244.036148,270.450653 240.531723,271.189087 
	C235.753418,272.195862 231.229111,271.586670 227.111694,268.961853 
	C225.710831,268.068787 223.456177,266.995911 225.534256,264.766632 
	C226.915039,263.285339 228.030396,260.206879 230.866211,263.306000 
	C231.601410,264.109497 232.807892,264.729523 233.888351,264.919617 
	C236.407227,265.362701 239.839325,266.638245 240.756699,263.218933 
	C241.702103,259.695129 237.916748,259.899292 235.753510,259.100372 
	C234.199753,258.526520 232.501144,258.329285 230.972900,257.705170 
	C227.387863,256.241058 225.333389,253.558929 225.517319,249.592621 
	C225.698242,245.691452 227.777206,243.065689 231.512527,241.852524 
	C236.157837,240.343842 240.714874,240.487061 244.993484,242.997940 
	C246.133820,243.667130 248.199738,244.497025 246.443024,246.301224 
	C245.278946,247.496750 244.619583,250.458633 241.868652,248.551804 
	C240.152100,247.361954 238.298950,246.844696 236.229843,246.961960 
	C234.656097,247.051132 233.099869,247.279541 232.807373,249.158768 
	C232.519424,251.008652 233.773468,251.742737 235.362488,252.244843 
	C238.365372,253.193695 241.612976,253.344360 244.717987,255.190186 
z"/>
<path fill="#FFF3F3" opacity="1.000000" stroke="none" 
	d="
M343.222748,263.958801 
	C340.919434,257.672668 338.685577,251.778870 336.628601,245.823990 
	C336.175049,244.511063 334.177521,242.296921 336.379608,241.768433 
	C338.645813,241.224564 342.192444,239.706787 343.620056,243.646149 
	C345.484650,248.791412 347.211517,253.986496 349.017456,259.153198 
	C349.337708,260.069458 349.754578,260.951935 350.487488,262.720184 
	C352.745819,256.391815 355.084351,250.972427 356.558655,245.327316 
	C357.625153,241.243866 360.112518,241.278030 363.243042,241.418045 
	C365.270142,241.508713 365.419067,242.457245 364.845886,244.000854 
	C361.728821,252.395264 358.601898,260.786011 355.496002,269.184540 
	C354.291870,272.440582 351.551208,270.675720 349.499512,270.962433 
	C347.785339,271.202026 345.770416,271.536285 345.073914,268.994476 
	C344.637543,267.402008 343.937561,265.881805 343.222748,263.958801 
z"/>
<path fill="#FF0808" opacity="1.000000" stroke="none" 
	d="
M160.690765,247.460815 
	C162.850433,246.794571 164.672150,246.582901 166.402161,247.380600 
	C168.219177,248.218369 169.331833,249.783066 169.080566,251.742569 
	C168.788803,254.017868 166.754349,252.808578 165.488586,253.044891 
	C164.528519,253.224136 163.478058,253.234146 162.521378,253.046478 
	C160.871033,252.722733 158.425858,254.218277 157.714142,252.052765 
	C157.161240,250.370453 158.658051,248.684265 160.690765,247.460815 
z"/>
<path fill="#FF0808" opacity="1.000000" stroke="none" 
	d="
M379.209961,253.061676 
	C375.900330,251.097198 378.386414,249.605072 379.420898,248.451889 
	C381.274200,246.385910 383.885010,246.470123 386.310455,247.360245 
	C388.164124,248.040543 389.074066,249.636749 389.130371,251.639679 
	C389.171570,253.104523 388.096710,253.065552 387.105194,253.071167 
	C384.628723,253.085159 382.152130,253.075806 379.209961,253.061676 
z"/>
<path fill="#FF0808" opacity="1.000000" stroke="none" 
	d="
M321.935516,261.459961 
	C321.029114,264.259949 319.485504,265.854523 316.840668,265.943939 
	C314.901428,266.009552 313.188416,265.431732 312.632507,263.281952 
	C312.046875,261.017059 312.877136,259.354889 315.107208,258.599945 
	C316.817230,258.021088 318.579651,257.334076 320.346924,257.243256 
	C323.795135,257.066040 321.462738,259.752167 321.935516,261.459961 
z"/>
</svg>